<?xml version="1.0" encoding="UTF-8"?>
<!DOCTYPE svg PUBLIC "-//W3C//DTD SVG 1.1//EN" "http://www.w3.org/Graphics/SVG/1.1/DTD/svg11.dtd">
<!-- Creator: CorelDRAW 2021 (64-Bit) -->
<svg xmlns="http://www.w3.org/2000/svg" xml:space="preserve" width="29.6544mm" height="3.4724mm" version="1.1" style="shape-rendering:geometricPrecision; text-rendering:geometricPrecision; image-rendering:optimizeQuality; fill-rule:evenodd; clip-rule:evenodd"
viewBox="0 0 262.22 30.7"
 xmlns:xlink="http://www.w3.org/1999/xlink"
 xmlns:xodm="http://www.corel.com/coreldraw/odm/2003">
 <defs>
  <style type="text/css">
   <![CDATA[
    .fil0 {fill:#0060AA;fill-rule:nonzero}
   ]]>
  </style>
 </defs>
 <g id="Layer_x0020_1">
  <metadata id="CorelCorpID_0Corel-Layer"/>
  <path class="fil0" d="M-0 30.19l6.35 0 0 -9.63 7 0c6.43,0 11.18,-4.15 11.18,-10.02 0,-5.87 -4.75,-10.02 -11.18,-10.02l-13.34 0 0 29.67zm6.35 -15.46l0 -8.38 6.31 0c3.15,0 5.31,1.64 5.31,4.19 0,2.55 -2.16,4.19 -5.31,4.19l-6.31 0zm47.25 15.46l-7.3 -10.36c4.06,-1.43 6.74,-4.88 6.74,-9.28 0,-5.87 -4.75,-10.02 -11.18,-10.02l-13.34 0 0 29.67 6.35 0 0 -9.63 4.71 0 6.78 9.63 7.26 0zm-18.74 -23.84l6.31 0c3.15,0 5.31,1.64 5.31,4.19 0,2.55 -2.16,4.19 -5.31,4.19l-6.31 0 0 -8.38zm37.53 24.36c8.59,0 15.76,-7.04 15.76,-15.37 0,-8.34 -7.17,-15.33 -15.76,-15.33 -8.51,0 -15.76,7 -15.76,15.33 0,8.33 7.26,15.37 15.76,15.37zm0 -5.79c-4.97,0 -9.2,-4.41 -9.2,-9.59 0,-5.14 4.23,-9.54 9.2,-9.54 5.01,0 9.24,4.4 9.24,9.54 0,5.18 -4.23,9.59 -9.24,9.59zm20.73 5.27l6.35 0 0 -18.48 9.2 16.76 9.15 -16.76 0 18.48 6.39 0 0 -29.67 -6.39 0 -9.15 16.76 -9.2 -16.76 -6.35 0 0 29.67zm60.03 -23.92l0 -5.74 -22.84 0 0 29.67 22.84 0 0 -5.74 -16.45 0 0 -6.52 14.9 0 0 -5.74 -14.9 0 0 -5.92 16.45 0zm5.1 23.92l10.62 0c9.98,0 17.06,-6.18 17.06,-14.86 0,-8.68 -7.08,-14.81 -17.06,-14.81l-10.62 0 0 29.67zm6.35 -5.79l0 -18.09 5.1 0c5.66,0 9.67,3.76 9.67,9.03 0,5.31 -4.02,9.07 -9.67,9.07l-5.1 0zm26.34 5.79l6.39 0 0 -29.67 -6.39 0 0 29.67zm26.9 0.52c4.49,0 8.64,-1.94 11.53,-4.97l-4.62 -4.15c-1.73,1.99 -4.19,3.33 -6.91,3.33 -4.97,0 -9.2,-4.41 -9.2,-9.59 0,-5.14 4.23,-9.54 9.2,-9.54 2.72,0 5.18,1.34 6.91,3.32l4.62 -4.15c-2.89,-3.07 -7.04,-4.97 -11.53,-4.97 -8.51,0 -15.76,7 -15.76,15.33 0,8.33 7.26,15.37 15.76,15.37zm37.23 -0.52l7.17 0 -12.09 -29.67 -7.13 0 -12.09 29.67 7.13 0 1.9 -4.66 13.21 0 1.9 4.66zm-12.91 -10.06l4.4 -10.84 4.41 10.84 -8.81 0z"/>
 </g>
</svg>
